# xmcd
#
# Track frame offsets:
#	150
#	18435
#	33382
#	48370
#	64287
#	76445
#	87147
#	100042
#	113015
#	131262
#	146180
#	161145
#	177075
#	189177
#	199857
#	212682
#
# Disc length: 3009 seconds
#
# Revision: 1
# Processed by: cddbd v1.5.1PL2 Copyright (c) Steve Scherf et al.
# Submitted via: audiograbber 1.83.01
#
DISCID=d40bbf10
DTITLE=Croce, Jim - Sc2204
DYEAR=1900
DGENRE=Easy Listening
TTITLE0=Operator
TTITLE1=You Don't Mess Around
TTITLE2=Lover's Cross
TTITLE3=I Get A Name
TTITLE4=Time In A Bottle
TTITLE5=Photograph's And Memories
TTITLE6=Workin' At The Carwash Blues
TTITLE7=I Have To Say I Love You In A Song
TTITLE8=Operator
TTITLE9=You Don't Mess Around
TTITLE10=Lover's Cross
TTITLE11=I Get A Name
TTITLE12=Time In A Bottle
TTITLE13=Photograph's And Memories
TTITLE14=Workin' At The Carwash Blues
TTITLE15=I Have To Say I Love You In A Song
EXTD=
EXTT0=
EXTT1=
EXTT2=
EXTT3=
EXTT4=
EXTT5=
EXTT6=
EXTT7=
EXTT8=
EXTT9=
EXTT10=
EXTT11=
EXTT12=
EXTT13=
EXTT14=
EXTT15=
PLAYORDER=
